<?xml version="1.0" standalone="no"?>
<svg id="Vector" width="650" height="717" viewBox="0 0 650 717" fill="none" xmlns="http://www.w3.org/2000/svg" style="max-width: 100%; max-height: 100%;">
<path opacity="0.5" d="M175 591.667C196.834 649.927 255.749 691.667 325 691.667C394.25 691.667 453.167 649.927 475 591.667M549.97 281.986V258.499C549.97 129.541 449.247 25 325 25C200.752 25 100.029 129.541 100.029 258.499V281.986C100.029 310.173 91.9907 337.727 76.9267 361.18L40.012 418.65C6.29402 471.143 32.035 542.497 90.6787 559.097C244.091 602.523 405.91 602.523 559.32 559.097C617.967 542.497 643.707 471.143 609.987 418.65L573.073 361.18C558.01 337.727 549.97 310.173 549.97 281.986Z" stroke="#1C274C" stroke-width="50" stroke-linecap="round" stroke-dasharray="0,0,0,2275.327880859375"><animate attributeType="XML" attributeName="stroke-dasharray" repeatCount="1" dur="1.0638297872340425s" values="0,0,0,2275.327880859375; 
          0,1137.6639404296875,1137.6639404296875,0; 
          2275.327880859375,0,0,0" keyTimes="0; 0.5; 1" fill="freeze"></animate></path>
</svg>